Coordinates
version=1
nRows=8
nColumns=42
inDegrees=yes

Units are S.I. units (second, meters, Newtons, ...)
If the header above contains a line with 'inDegrees', this indicates whether rotational values are in degrees (yes) or radians (no).

endheader
time	pelvis_tilt	pelvis_list	pelvis_rotation	pelvis_tx	pelvis_ty	pelvis_tz	hip_flexion_r	hip_adduction_r	hip_rotation_r	knee_angle_r	knee_adduction_r	knee_angle_r_beta	ankle_angle_r	subtalar_angle_r	mtp_angle_r	hip_flexion_l	hip_adduction_l	hip_rotation_l	knee_angle_l	knee_adduction_l	knee_angle_l_beta	ankle_angle_l	subtalar_angle_l	mtp_angle_l	lumbar_extension	lumbar_bending	lumbar_rotation	arm_flex_r	arm_add_r	arm_rot_r	elbow_flex_r	pro_sup_r	wrist_flex_r	wrist_dev_r	arm_flex_l	arm_add_l	arm_rot_l	elbow_flex_l	pro_sup_l	wrist_flex_l	wrist_dev_l
      0.85000000	     10.31404169	      0.38436626	     -6.97240376	      0.24713143	      0.84193087	     -0.29160914	     10.13505984	     -5.78759893	    -16.48742469	     53.64424348	    -12.42095133	      0.93626867	     11.37831916	     -1.14448886	     -7.53835943	    -11.50169716	      5.06951135	    -11.29724329	     10.49995000	      3.18577461	      0.18325870	     18.62766257	      2.27003232	     -7.53835943	    -23.51932903	     -3.06107461	      3.65686994	      5.06991669	    -16.51293712	     -0.98763669	     35.63470811	     90.00000001	      0.00000000	      0.00000000	     -3.36563634	     -7.91159664	    -33.61725800	     34.92049633	     90.00000001	      0.00000000	      0.00000000
      0.86000000	     10.27305999	     -0.17485862	     -6.35122199	      0.26176916	      0.84236473	     -0.29242919	     11.10451260	     -4.84730264	    -17.36238329	     50.49790853	    -11.90496288	      0.88135477	     11.85177298	     -0.51813117	     -7.53656070	    -13.43963284	      4.51918059	    -11.17027083	      8.99189418	      3.34191643	      0.15693816	     18.85902771	      3.09742210	     -7.53656070	    -23.47649955	     -2.07162342	      2.91286254	      4.98315929	    -16.42744867	     -1.31680982	     35.29942761	     90.00000001	      0.00000000	      0.00000000	     -3.00280439	     -8.13820926	    -30.80489697	     36.65721867	     90.00000001	      0.00000000	      0.00000000
      0.87000000	      9.55122139	      0.00421496	     -6.02457929	      0.27577734	      0.84109122	     -0.29343643	     13.23408215	     -4.95534633	    -17.73249881	     47.90055055	    -10.86050446	      0.83602232	     12.06517261	     -0.54666698	     -7.53602053	    -13.96330820	      4.79275372	    -11.84640691	      8.48055703	      3.28289036	      0.14801364	     18.96907464	      3.31261749	     -7.53602053	    -22.63304523	     -1.87345869	      2.21877094	      4.74902342	    -16.37586980	     -1.33937713	     35.24265417	     90.00000001	      0.00000000	      0.00000000	     -2.07391480	     -8.12516103	    -30.22573349	     37.69469180	     90.00000001	      0.00000000	      0.00000000
      0.88000000	      9.71991629	     -0.68486187	     -5.40688381	      0.29095703	      0.84084312	     -0.29389778	     13.47309416	     -3.86974045	    -18.40326484	     44.03268710	     -9.91549747	      0.76851537	     12.80645201	     -0.43477139	     -7.53482859	    -16.37500487	      4.00715868	    -11.42380767	      6.59210105	      3.71175659	      0.11505387	     19.52221422	      4.97110182	     -7.53482859	    -22.74439250	     -0.81936641	      1.40037160	      4.94736006	    -16.21174946	     -1.75913327	     34.45573106	     90.00000001	      0.00000000	      0.00000000	     -2.06122644	     -8.47064081	    -27.40184942	     40.08029434	     90.00000001	      0.00000000	      0.00000000
      0.89000000	      9.69526636	     -0.96030142	     -4.83519963	      0.30572746	      0.83978863	     -0.29448051	     14.03568534	     -3.46176049	    -19.32440958	     40.28538690	     -8.82766220	      0.70311264	     12.92524690	     -0.19049446	     -7.53337991	    -18.01242419	      3.66144331	    -11.63445559	      5.64364862	      3.95296341	      0.09850025	     19.75067748	      5.50550724	     -7.53337991	    -22.65436497	     -0.21270040	      0.66252988	      4.78926280	    -16.11215647	     -2.27185741	     34.32836258	     90.00000001	      0.00000000	      0.00000000	     -1.58430657	     -8.91952236	    -25.03180525	     41.78039300	     90.00000001	      0.00000000	      0.00000000
      0.90000000	      8.98667365	     -0.43920685	     -4.63650944	      0.31998143	      0.83708807	     -0.29542674	     15.92709826	     -4.17303043	    -20.05597986	     37.47843201	     -7.59168652	      0.65412204	     12.99666266	     -0.21389805	     -7.53292343	    -18.38726573	      4.28041741	    -12.53509953	      5.46338562	      4.05762400	      0.09535407	     19.92256625	      5.50065129	     -7.53292343	    -21.76268801	     -0.44734497	      0.08238202	      4.47105801	    -16.14874226	     -2.32179184	     34.29284942	     90.00000001	      0.00000000	      0.00000000	     -0.57899629	     -8.95512769	    -24.61740972	     42.80775009	     90.00000001	      0.00000000	      0.00000000
      0.91000000	      9.11453549	     -0.65963609	     -3.97835198	      0.33483128	      0.83562807	     -0.29608639	     15.77239712	     -3.83373418	    -20.56274711	     33.07149085	     -6.02227975	      0.57720640	     13.62441906	      0.93691397	     -7.53186953	    -20.18361532	      4.11063360	    -12.39511937	      4.45197187	      4.02384004	      0.07770157	     20.37723471	      6.79165613	     -7.53186953	    -21.87404742	      0.09627155	     -0.87697997	      4.63644377	    -15.98991659	     -2.88792664	     33.82142685	     90.00000001	      0.00000000	      0.00000000	     -0.37149672	     -9.45212996	    -22.50035570	     45.13185625	     90.00000001	      0.00000000	      0.00000000
      0.92000000	      9.04340527	     -0.69744317	     -3.50867227	      0.34971322	      0.83345414	     -0.29647056	     16.10041601	     -3.78073090	    -22.03539870	     29.15155446	     -4.94736268	      0.50879061	     13.90573958	      2.72202398	     -7.53009489	    -21.51895205	      3.96769229	    -13.00004735	      4.01042682	      4.30810502	      0.06999515	     20.65520476	      7.32119619	     -7.53009489	    -21.71903776	      0.39777427	     -1.45574017	      4.40016453	    -15.89681431	     -3.73877759	     33.81180790	     90.00000001	      0.00000000	      0.00000000	      0.33586031	     -9.87133559	    -20.85233666	     46.60768114	     90.00000001	      0.00000000	      0.00000000
